<svg width="27" height="25" viewBox="0 0 27 25" fill="none" xmlns="http://www.w3.org/2000/svg">
<path d="M23.9738 11.7388L26.0993 9.00428C26.1313 8.96313 26.1511 8.91385 26.1566 8.86202C26.162 8.8102 26.1528 8.75788 26.1301 8.711C26.1074 8.66347 26.0718 8.6233 26.0273 8.59513C25.9829 8.56696 25.9313 8.55194 25.8787 8.55179H23.6106C23.3514 8.55179 23.1027 8.44879 22.9194 8.26545C22.736 8.08212 22.633 7.83346 22.633 7.57418C22.6323 7.16698 22.4702 6.77666 22.1823 6.48872C21.8943 6.20078 21.504 6.03869 21.0968 6.03795H19.8985L20.3426 4.5464C20.3616 4.48039 20.3555 4.40972 20.3256 4.34789C20.2957 4.28606 20.2441 4.23741 20.1806 4.21122L18.5048 3.51852L18.2003 1.72811C18.189 1.66252 18.1546 1.60313 18.1034 1.56063C18.0522 1.51813 17.9875 1.49531 17.921 1.49627L16.0831 1.59403L15.0356 0.116454C14.9956 0.0607088 14.9365 0.0216408 14.8695 0.00670134C14.8026 -0.00823817 14.7324 0.00199612 14.6725 0.0354523L13.0804 0.915297L11.4911 0.0354523C11.4312 0.00199612 11.3611 -0.00823817 11.2941 0.00670134C11.2272 0.0216408 11.168 0.0607088 11.128 0.116454L10.0778 1.59403L8.26504 1.49348C8.19849 1.49251 8.13379 1.51534 8.08259 1.55784C8.03138 1.60034 7.99703 1.65973 7.98572 1.72531L7.68127 3.51573L6.00537 4.20843C5.94189 4.23461 5.89027 4.28327 5.86039 4.34509C5.83051 4.40692 5.82445 4.47759 5.84337 4.54361L6.27351 6.03515H5.06408C4.65687 6.03589 4.26655 6.19798 3.97861 6.48592C3.69067 6.77386 3.52858 7.16418 3.52784 7.57139C3.52784 7.83067 3.42484 8.07933 3.24151 8.26266C3.05817 8.446 2.80951 8.549 2.55024 8.549H0.2794C0.226752 8.54915 0.175219 8.56417 0.130742 8.59234C0.0862643 8.62051 0.0506535 8.66067 0.0280154 8.70821C0.00526832 8.75509 -0.00390919 8.8074 0.00152039 8.85923C0.00694998 8.91106 0.0267702 8.96033 0.0587401 9.00149L2.18713 11.7388L0.0615333 14.3867C0.0285697 14.4278 0.0079287 14.4775 0.00199727 14.5299C-0.00393415 14.5823 0.00508625 14.6353 0.0280154 14.6828C0.0506535 14.7303 0.0862643 14.7705 0.130742 14.7986C0.175219 14.8268 0.226752 14.8418 0.2794 14.842H3.81554C4.22297 14.842 4.61372 14.6801 4.90182 14.392C5.18992 14.1039 5.35177 13.7132 5.35177 13.3057C5.35177 13.0465 5.45477 12.7978 5.63811 12.6145C5.82144 12.4311 6.0701 12.3281 6.32938 12.3281H7.70082L7.98013 13.9342C7.99144 13.9998 8.02579 14.0592 8.077 14.1017C8.12821 14.1442 8.19291 14.167 8.25945 14.166L9.0974 14.1213V24.1376C9.09762 24.1925 9.11403 24.2461 9.14456 24.2918C9.17509 24.3374 9.2184 24.373 9.26907 24.3942C9.31973 24.4154 9.37551 24.4211 9.42943 24.4107C9.48335 24.4004 9.53302 24.3744 9.57223 24.3359L13.0804 20.8808L16.5859 24.3359C16.6379 24.3875 16.7081 24.4166 16.7814 24.4169C16.8187 24.4162 16.8557 24.4086 16.8903 24.3946C16.9408 24.3732 16.9839 24.3374 17.0142 24.2917C17.0445 24.246 17.0606 24.1924 17.0607 24.1376V14.1213L17.8986 14.166C17.9652 14.167 18.0299 14.1442 18.0811 14.1017C18.1323 14.0592 18.1666 13.9998 18.178 13.9342L18.4573 12.3281H19.8315C20.0908 12.3281 20.3394 12.4311 20.5228 12.6145C20.7061 12.7978 20.8091 13.0465 20.8091 13.3057C20.8091 13.7132 20.971 14.1039 21.2591 14.392C21.5472 14.6801 21.9379 14.842 22.3453 14.842H25.8815C25.9341 14.8418 25.9857 14.8268 26.0301 14.7986C26.0746 14.7705 26.1102 14.7303 26.1329 14.6828C26.1558 14.6353 26.1648 14.5823 26.1589 14.5299C26.153 14.4775 26.1323 14.4278 26.0993 14.3867L23.9738 11.7388ZM4.79314 13.3057C4.79314 13.565 4.69014 13.8137 4.50681 13.997C4.32347 14.1804 4.07481 14.2833 3.81554 14.2833H0.860376L2.74576 11.9287C2.78472 11.8794 2.80592 11.8184 2.80592 11.7555C2.80592 11.6927 2.78472 11.6317 2.74576 11.5824L0.849204 9.11042H2.55024C2.95767 9.11042 3.34842 8.94857 3.63652 8.66047C3.92462 8.37237 4.08647 7.98162 4.08647 7.57418C4.08647 7.31491 4.18947 7.06625 4.37281 6.88291C4.55614 6.69958 4.8048 6.59658 5.06408 6.59658H6.06124L5.12553 7.64681C5.07998 7.69796 5.05482 7.76406 5.05482 7.83255C5.05482 7.90104 5.07998 7.96714 5.12553 8.0183L6.33496 9.37298L5.8322 11.1159C5.81327 11.1819 5.81933 11.2526 5.84922 11.3144C5.8791 11.3762 5.93071 11.4249 5.9942 11.4511L6.75952 11.7695H6.32938C5.92217 11.7702 5.53185 11.9323 5.24391 12.2203C4.95597 12.5082 4.79388 12.8985 4.79314 13.3057V13.3057ZM16.5021 23.47L13.276 20.2886C13.2237 20.2375 13.1536 20.2088 13.0804 20.2088C13.0073 20.2088 12.9371 20.2375 12.8849 20.2886L9.65882 23.47V14.0906L10.0778 14.0655L11.1252 15.5598C11.1652 15.6156 11.2244 15.6546 11.2913 15.6696C11.3583 15.6845 11.4284 15.6743 11.4883 15.6408L13.0804 14.7498L14.6697 15.6296C14.7104 15.6536 14.7567 15.6661 14.8038 15.666C14.8481 15.6679 14.8922 15.6593 14.9326 15.6409C14.9729 15.6224 15.0082 15.5946 15.0356 15.5598L16.0859 14.0767L16.5049 14.1018L16.5021 23.47ZM17.678 13.6046L15.9602 13.5096C15.9131 13.5071 15.8661 13.5165 15.8236 13.537C15.7811 13.5575 15.7445 13.5885 15.7172 13.627L14.72 15.0235L13.2145 14.1856C13.172 14.1611 13.1239 14.1482 13.0749 14.1482C13.0258 14.1482 12.9777 14.1611 12.9352 14.1856L11.4297 15.0235L10.4325 13.627C10.4052 13.5885 10.3686 13.5575 10.3261 13.537C10.2836 13.5165 10.2366 13.5071 10.1895 13.5096L8.4829 13.6046L8.20359 11.9092C8.19591 11.8625 8.17651 11.8185 8.1472 11.7814C8.11789 11.7443 8.07962 11.7152 8.036 11.6969L6.44669 11.0405L6.92153 9.38694C6.93465 9.34178 6.93615 9.29404 6.92589 9.24814C6.91564 9.20224 6.89396 9.15967 6.86287 9.12439L5.71768 7.83953L6.86287 6.55747C6.89396 6.52219 6.91564 6.47962 6.92589 6.43372C6.93615 6.38782 6.93465 6.34008 6.92153 6.29492L6.44669 4.64137L8.036 3.98498C8.07962 3.96668 8.11789 3.9376 8.1472 3.90047C8.17651 3.86334 8.19591 3.81938 8.20359 3.7727L8.4829 2.07725L10.2007 2.17222C10.2478 2.17478 10.2948 2.16537 10.3373 2.14485C10.3798 2.12434 10.4164 2.09339 10.4437 2.0549L11.4409 0.658326L12.9464 1.49627C12.9888 1.52079 13.037 1.53369 13.086 1.53369C13.1351 1.53369 13.1832 1.52079 13.2257 1.49627L14.7312 0.658326L15.7284 2.0549C15.7557 2.09339 15.7923 2.12434 15.8347 2.14485C15.8772 2.16537 15.9242 2.17478 15.9714 2.17222L17.6891 2.07725L17.9685 3.7727C17.9761 3.81938 17.9955 3.86334 18.0249 3.90047C18.0542 3.9376 18.0924 3.96668 18.1361 3.98498L19.7254 4.64137L19.2505 6.29492C19.2374 6.34008 19.2359 6.38782 19.2462 6.43372C19.2564 6.47962 19.2781 6.52219 19.3092 6.55747L20.4544 7.83953L19.3092 9.12439C19.2781 9.15967 19.2564 9.20224 19.2462 9.24814C19.2359 9.29404 19.2374 9.34178 19.2505 9.38694L19.7254 11.0405L18.1361 11.6969C18.0924 11.7152 18.0542 11.7443 18.0249 11.7814C17.9955 11.8185 17.9761 11.8625 17.9685 11.9092L17.678 13.6046ZM22.3453 14.2917C22.0861 14.2917 21.8374 14.1887 21.6541 14.0054C21.4707 13.8221 21.3677 13.5734 21.3677 13.3141C21.367 12.9069 21.2049 12.5166 20.917 12.2287C20.629 11.9407 20.2387 11.7786 19.8315 11.7779H19.4014L20.1667 11.4623C20.2352 11.4387 20.2919 11.3893 20.3247 11.3247C20.3576 11.2601 20.364 11.1852 20.3426 11.1159L19.8399 9.37298L21.0354 8.0183C21.0809 7.96714 21.1061 7.90104 21.1061 7.83255C21.1061 7.76406 21.0809 7.69796 21.0354 7.64681L20.0996 6.59658H21.0968C21.3561 6.59658 21.6047 6.69958 21.7881 6.88291C21.9714 7.06625 22.0744 7.31491 22.0744 7.57418C22.0744 7.98162 22.2363 8.37237 22.5244 8.66047C22.8125 8.94857 23.2032 9.11042 23.6106 9.11042H25.3117L23.4151 11.5712C23.3733 11.6214 23.3504 11.6846 23.3504 11.75C23.3504 11.8153 23.3733 11.8785 23.4151 11.9287L25.3117 14.2945L22.3453 14.2917ZM10.2873 7.80881C10.3636 7.79264 10.4319 7.75012 10.48 7.6887C10.5371 7.60991 10.5633 7.51286 10.5535 7.41604C10.5437 7.31921 10.4987 7.22936 10.4269 7.16359C10.3205 7.09047 10.1927 7.05507 10.0638 7.06304H9.37392V8.60207H10.0918C10.2268 8.61176 10.3608 8.57206 10.4688 8.49034C10.5132 8.45294 10.5482 8.40566 10.571 8.35231C10.5938 8.29895 10.6037 8.241 10.6001 8.18309C10.6029 8.09673 10.5741 8.01231 10.5191 7.94567C10.4611 7.87328 10.3787 7.8246 10.2873 7.80881V7.80881ZM9.72865 7.35911H9.96607C10.1001 7.35911 10.1644 7.41497 10.1644 7.5267C10.1644 7.63843 10.1001 7.6915 9.97166 7.6915H9.72865V7.35911ZM10.008 8.29761H9.72865V7.95405H10.008C10.0629 7.95 10.1174 7.96586 10.1616 7.99874C10.18 8.01517 10.1945 8.03545 10.2042 8.05814C10.2138 8.08083 10.2184 8.10538 10.2175 8.13002C10.2202 8.24175 10.1504 8.29761 10.008 8.29761ZM11.8989 7.83395C11.9597 7.7536 11.9921 7.65537 11.9911 7.55463C11.9917 7.46671 11.9695 7.38012 11.9269 7.30325C11.8828 7.2274 11.8165 7.16694 11.7369 7.13007C11.6406 7.0861 11.5355 7.06507 11.4297 7.06862H10.7984V8.60765H11.1699V8.0183H11.2565L11.5889 8.59927H11.9995L11.6336 7.99316C11.7391 7.97333 11.8346 7.91816 11.9045 7.83674L11.8989 7.83395ZM11.5582 7.71384C11.5127 7.75098 11.4546 7.769 11.3962 7.76412H11.1643V7.37587H11.4045C11.4337 7.37337 11.4631 7.37678 11.491 7.3859C11.5188 7.39502 11.5445 7.40966 11.5665 7.42894C11.585 7.44755 11.5993 7.46988 11.6084 7.49444C11.6176 7.519 11.6214 7.54524 11.6196 7.57139C11.6213 7.59819 11.6171 7.62503 11.6075 7.65009C11.5979 7.67516 11.5829 7.69785 11.5638 7.71663L11.5582 7.71384ZM12.6307 7.06862L12.0721 8.59927H12.4659L12.5609 8.31996H13.1391L13.2341 8.59927H13.6391L13.0804 7.06862H12.6307ZM12.6503 8.03506L12.8458 7.47642L13.0357 8.03506H12.6503ZM14.7647 7.06024H15.139V8.59927H14.7703L14.1474 7.65519V8.59927H13.7731V7.06304H14.1474L14.7703 8.0183L14.7647 7.06024ZM16.6836 7.42615C16.6211 7.30679 16.5237 7.20934 16.4043 7.14683C16.2709 7.08023 16.1232 7.04761 15.9742 7.05186H15.4016V8.59089H15.9825C16.131 8.59563 16.2782 8.56196 16.4099 8.49313C16.5294 8.43077 16.6268 8.33329 16.6892 8.21382C16.7549 8.09003 16.7885 7.95174 16.787 7.8116C16.7867 7.67791 16.7531 7.54639 16.6892 7.42894L16.6836 7.42615ZM16.2842 8.14957C16.1906 8.23221 16.0681 8.27439 15.9434 8.26689H15.7675V7.38984H15.9434C16.0677 7.38157 16.1902 7.42273 16.2842 7.50435C16.3252 7.54732 16.3571 7.59822 16.3777 7.65394C16.3984 7.70966 16.4074 7.76902 16.4043 7.82836C16.4083 7.88732 16.4003 7.94649 16.3806 8.00221C16.3609 8.05794 16.33 8.10904 16.2898 8.15237L16.2842 8.14957ZM13.0804 2.80347C12.0861 2.80347 11.114 3.09834 10.2872 3.65079C9.46041 4.20324 8.816 4.98845 8.43547 5.90714C8.05493 6.82583 7.95537 7.83673 8.14936 8.81201C8.34336 9.78728 8.8222 10.6831 9.52533 11.3863C10.2285 12.0894 11.1243 12.5682 12.0996 12.7622C13.0749 12.9562 14.0858 12.8567 15.0045 12.4761C15.9231 12.0956 16.7084 11.4512 17.2608 10.6244C17.8133 9.79759 18.1081 8.82554 18.1081 7.83115C18.1081 6.49773 17.5784 5.21892 16.6355 4.27605C15.6927 3.33317 14.4139 2.80347 13.0804 2.80347ZM13.0804 12.3002C12.1965 12.3002 11.3325 12.0381 10.5976 11.547C9.86264 11.056 9.28983 10.358 8.95157 9.54139C8.61332 8.72477 8.52482 7.8262 8.69726 6.95929C8.8697 6.09237 9.29533 5.29607 9.92034 4.67106C10.5454 4.04605 11.3417 3.62041 12.2086 3.44797C13.0755 3.27554 13.9741 3.36404 14.7907 3.70229C15.6073 4.04054 16.3053 4.61335 16.7963 5.34828C17.2874 6.08321 17.5495 6.94726 17.5495 7.83115C17.5495 9.01642 17.0786 10.1531 16.2405 10.9913C15.4024 11.8294 14.2657 12.3002 13.0804 12.3002Z" fill="white"/>
</svg>
