<svg width="25" height="25" viewBox="0 0 25 25" fill="none" xmlns="http://www.w3.org/2000/svg">
<path d="M0.0398738 12.4337C0.0398738 10.5984 1.52766 9.11032 3.36324 9.11032C4.80202 9.11032 6.02703 10.0246 6.48945 11.3037V11.3039C7.48297 12.6926 8.94722 13.7213 10.6491 14.1574L10.6895 14.1676C10.6737 14.1795 10.6582 14.1914 10.643 14.2036C9.94545 14.7519 9.4966 15.6031 9.4966 16.557C9.4966 17.2263 9.71756 17.8452 10.0903 18.3441L10.0731 18.3344C10.0678 18.3328 10.0626 18.3308 10.0576 18.3289C10.0352 18.3212 10.0125 18.3131 9.99003 18.3051C8.65648 17.8255 7.50152 16.9721 6.65116 15.8714L6.65642 24.9211H0L0.0409814 12.4583L0.0398738 12.4337ZM18.3439 3.32337C18.3439 5.15866 19.8316 6.64673 21.6672 6.64673C23.5028 6.64673 24.9906 5.15894 24.9906 3.32337C24.9906 1.48779 23.5025 0 21.6672 0C19.8319 0 18.3439 1.48779 18.3439 3.32337ZM3.36324 0C5.19854 0 6.6866 1.48779 6.6866 3.32337C6.6866 5.15894 5.19882 6.64673 3.36324 6.64673C1.52766 6.64673 0.0398738 5.15866 0.0398738 3.32337C0.0398738 1.48807 1.52766 0 3.36324 0ZM13.6745 14.2748C12.6319 14.4193 11.8292 15.3143 11.8292 16.3967C11.8292 17.5799 12.7884 18.5388 13.9713 18.5388C14.1773 18.5388 14.3767 18.5097 14.5653 18.4554L14.6641 18.4153C16.1408 17.9659 17.4209 17.0651 18.3436 15.8736V15.9171V24.9164H25L24.99 12.4337C24.99 10.5984 23.5022 9.11032 21.6667 9.11032C20.2639 9.11032 19.0644 9.97923 18.5765 11.2081L18.5587 11.2303C17.4572 12.8072 15.754 13.9331 13.7822 14.2742L13.6745 14.2748Z" fill="white"/>
</svg>
