<svg width="26" height="24" viewBox="0 0 26 24" fill="none" xmlns="http://www.w3.org/2000/svg">
<path d="M5.50151 9.42701C5.74275 9.42701 5.93832 9.23144 5.93832 8.9902C5.93832 8.74896 5.74275 8.55339 5.50151 8.55339C5.26026 8.55339 5.0647 8.74896 5.0647 8.9902C5.0647 9.23144 5.26026 9.42701 5.50151 9.42701Z" fill="white"/>
<path d="M8.31227 9.42701C8.55351 9.42701 8.74908 9.23144 8.74908 8.9902C8.74908 8.74896 8.55351 8.55339 8.31227 8.55339C8.07102 8.55339 7.87546 8.74896 7.87546 8.9902C7.87546 9.23144 8.07102 9.42701 8.31227 9.42701Z" fill="white"/>
<path d="M6.90694 11.1949C7.53656 11.1949 8.11994 10.8565 8.42967 10.312C8.5111 10.1689 8.46107 9.98714 8.31799 9.90586C8.17491 9.82428 7.99344 9.87445 7.91201 10.0174C7.70785 10.3764 7.32281 10.5993 6.90694 10.5993C6.49107 10.5993 6.10603 10.3763 5.90158 10.0174C5.81986 9.87445 5.63781 9.82428 5.49531 9.90586C5.35251 9.98729 5.30249 10.1692 5.38392 10.312C5.69394 10.8567 6.27761 11.1949 6.90694 11.1949Z" fill="white"/>
<path d="M6.90694 17.6422C6.74234 17.6422 6.60914 17.7754 6.60914 17.94V18.2026C6.60914 18.3672 6.74234 18.5004 6.90694 18.5004C7.07154 18.5004 7.20474 18.3672 7.20474 18.2026V17.94C7.20474 17.7754 7.07154 17.6422 6.90694 17.6422Z" fill="white"/>
<path d="M6.90694 19.2176C6.74234 19.2176 6.60914 19.3508 6.60914 19.5154V19.778C6.60914 19.9426 6.74234 20.0758 6.90694 20.0758C7.07154 20.0758 7.20474 19.9426 7.20474 19.778V19.5154C7.20474 19.3508 7.07154 19.2176 6.90694 19.2176Z" fill="white"/>
<path d="M6.90694 20.7932C6.74234 20.7932 6.60914 20.9264 6.60914 21.091V21.2399C6.60914 21.4045 6.74234 21.5377 6.90694 21.5377C7.07154 21.5377 7.20474 21.4045 7.20474 21.2399V21.091C7.20474 20.9264 7.07154 20.7932 6.90694 20.7932Z" fill="white"/>
<path d="M16.7619 0C14.4726 0 12.2727 0.928348 10.6714 2.55502C10.2347 2.15729 9.6564 1.91242 9.02061 1.91242H8.17284C8.17106 1.235 7.61981 0.684296 6.94184 0.684296H6.87175C6.19378 0.684296 5.64254 1.235 5.64076 1.91242H4.79327C3.43864 1.91242 2.33644 3.01463 2.33644 4.36926V5.80518C1.49899 5.8645 0.835522 6.563 0.835522 7.41515V7.51403C0.835522 8.40495 1.56024 9.12982 2.45131 9.12982H2.88667V9.82051C2.88667 11.2991 3.67633 12.6269 4.95613 13.332V13.6126H4.43644H3.60993C2.4231 13.6126 1.31159 14.1957 0.63573 15.1732C0.219859 15.7784 0 16.4859 0 17.2197V21.7969V23.2667C0 23.4313 0.133195 23.5645 0.297798 23.5645H3.60092H3.60237H10.2121H10.213H13.5161H13.5167C13.6813 23.5645 13.8145 23.4313 13.8145 23.2667V21.7969C13.8145 21.7958 13.8139 21.795 13.8139 21.794V17.2197C13.8139 16.9946 13.7907 16.7725 13.7501 16.5546C14.7051 16.9181 15.7149 17.1048 16.7619 17.1048C21.477 17.1048 25.3129 13.2689 25.3129 8.55385C25.3129 3.83721 21.477 0 16.7619 0ZM2.88667 8.53422H2.45131C1.88887 8.53422 1.43112 8.07662 1.43112 7.51403V7.41515C1.43112 6.85256 1.88887 6.39496 2.45131 6.39496H2.63424H2.88667V8.53422ZM10.9269 6.39496H11.1797H11.3295C11.9089 6.40363 12.3778 6.87403 12.3825 7.45435V7.47162C12.3777 8.05735 11.9005 8.53262 11.3137 8.53262H10.9269V6.39496V6.39496ZM6.87175 1.27989H6.94184C7.29141 1.27989 7.57583 1.5633 7.57757 1.91242H6.23602C6.23777 1.5633 6.52219 1.27989 6.87175 1.27989ZM10.1026 6.39597C9.6079 6.97456 8.6093 7.36295 7.51592 7.36295H6.29797C5.20429 7.36295 4.20569 6.97456 3.71099 6.39597H10.1026V6.39597ZM3.48226 9.82051V8.83202V7.00706C4.1283 7.59113 5.16103 7.95854 6.29797 7.95854H7.51592C8.65264 7.95854 9.68532 7.59117 10.3313 7.00708V8.83202V9.82051C10.3313 9.84132 10.3296 9.86177 10.3292 9.88251C10.3278 9.95978 10.3242 10.0366 10.3179 10.1129C10.3144 10.1542 10.3098 10.1953 10.3049 10.2363C10.2974 10.2997 10.2877 10.3625 10.2768 10.4249C10.2703 10.4615 10.2651 10.4985 10.2575 10.5348C10.2389 10.6236 10.2163 10.7112 10.1908 10.7978C10.1802 10.8337 10.168 10.8689 10.1563 10.9044C10.1351 10.9685 10.1122 11.032 10.0872 11.0946C10.0754 11.1242 10.0641 11.154 10.0516 11.1832C10.0125 11.2734 9.97032 11.3622 9.92342 11.4488C9.91732 11.4601 9.91045 11.471 9.90421 11.4823C9.85657 11.5679 9.8055 11.6517 9.75031 11.7331C9.74493 11.7411 9.7397 11.7492 9.73425 11.7571C9.60756 11.9407 9.46226 12.1134 9.29834 12.2723C9.29793 12.2727 9.29778 12.2733 9.29736 12.2737C9.04535 12.5175 8.75413 12.7264 8.42676 12.8876C7.71418 13.2432 6.89446 13.3324 6.1288 13.1545C5.8733 13.0951 5.62363 13.0058 5.38567 12.8868C4.21164 12.3083 3.48226 11.1334 3.48226 9.82051ZM9.8728 13.6126H9.37745H8.85775V13.3321C9.06104 13.22 9.25272 13.0934 9.42998 12.9518C9.56737 13.18 9.71574 13.4001 9.8728 13.6126ZM8.26216 13.6054V13.9104V14.1172C8.26216 14.8646 7.65435 15.4724 6.90694 15.4724C6.15954 15.4724 5.55173 14.8646 5.55173 14.1172V13.9104V13.6054C5.67765 13.6508 5.80652 13.6876 5.93663 13.7198C5.98597 13.7322 6.0359 13.7418 6.08571 13.7522C6.1701 13.7696 6.25478 13.7845 6.34019 13.7965C6.39588 13.8044 6.45145 13.8124 6.50765 13.8179C6.61247 13.8282 6.71758 13.8337 6.82295 13.8359C6.85116 13.8364 6.87862 13.8406 6.90694 13.8406C6.9361 13.8406 6.96442 13.8363 6.99346 13.8357C7.09748 13.8335 7.20129 13.8282 7.3048 13.818C7.36198 13.8124 7.41851 13.8043 7.47515 13.7962C7.55909 13.7844 7.6423 13.7698 7.72525 13.7527C7.77635 13.7421 7.82751 13.7322 7.8781 13.7196C8.00789 13.6874 8.13647 13.6507 8.26216 13.6054ZM3.30312 21.4991H0.595597V17.2197C0.595597 17.0935 0.605303 16.9685 0.620698 16.8447C0.622661 16.8289 0.623842 16.8131 0.626042 16.7974C0.642509 16.6801 0.666847 16.5645 0.696874 16.4505C0.702127 16.4305 0.707307 16.4106 0.71296 16.3908C0.744987 16.2787 0.78332 16.1685 0.828288 16.0607C0.835922 16.0425 0.84421 16.0245 0.852208 16.0063C0.900338 15.8971 0.953867 15.7898 1.01516 15.6862C1.01717 15.6827 1.01954 15.6795 1.02157 15.6761C1.55104 15.8073 2.0328 16.0782 2.42397 16.467C2.99078 17.0341 3.30312 17.7891 3.30312 18.5932V21.4991V21.4991ZM9.91517 18.5932V21.7925C9.91515 21.7941 9.9143 21.7953 9.9143 21.7969V22.9689H3.90017V21.7969C3.90017 21.7943 3.89879 21.7922 3.89871 21.7896V18.5932C3.89871 17.63 3.52443 16.7253 2.8445 16.0453C2.43613 15.6395 1.94521 15.3425 1.40665 15.1686C1.97331 14.5626 2.76788 14.2082 3.60993 14.2082H4.13864V16.4784C4.13864 16.643 4.27184 16.7762 4.43644 16.7762H6.65473C6.70659 16.8636 6.79781 16.9251 6.90694 16.9251C7.01607 16.9251 7.10732 16.8636 7.15917 16.7762H9.37745C9.54205 16.7762 9.67525 16.643 9.67525 16.4784V14.2082H10.204C10.3134 14.2082 10.4217 14.2165 10.5293 14.2281C10.5752 14.2332 10.6204 14.241 10.6658 14.2481C10.7361 14.259 10.8061 14.271 10.8751 14.2868C10.9209 14.2972 10.966 14.3097 11.0111 14.3222C11.0789 14.3411 11.1461 14.3617 11.2122 14.3852C11.2553 14.4004 11.2979 14.4168 11.3402 14.4339C11.4064 14.4609 11.4715 14.4905 11.5357 14.522C11.5753 14.5416 11.6148 14.5612 11.6535 14.5824C11.7175 14.6175 11.7797 14.6559 11.8411 14.6956C11.8772 14.719 11.9137 14.7416 11.9488 14.7665C12.0099 14.8098 12.0683 14.8571 12.1263 14.905C12.1581 14.9314 12.191 14.9564 12.2218 14.9841C12.2824 15.0387 12.3393 15.0976 12.3956 15.1572C12.3993 15.1611 12.4031 15.1648 12.4068 15.1687C11.8684 15.3426 11.3775 15.6397 10.9688 16.0459C10.2895 16.725 9.91517 17.6297 9.91517 18.5932ZM13.2183 21.4991H10.5108V18.5932C10.5108 17.7888 10.8231 17.0338 11.3893 16.4676C11.7801 16.0791 12.2607 15.8086 12.7883 15.6773C12.8001 15.697 12.8127 15.7163 12.824 15.7364C12.8639 15.8068 12.8999 15.879 12.9338 15.952C12.9548 15.9974 12.9765 16.0425 12.9952 16.0889C13.0355 16.1881 13.0717 16.2888 13.1011 16.3915C13.1066 16.4108 13.1116 16.4301 13.1167 16.4495C13.1469 16.5639 13.1713 16.6799 13.1878 16.7976C13.19 16.813 13.1912 16.8287 13.1931 16.8442C13.2086 16.9681 13.2183 17.0933 13.2183 17.2197V21.4991V21.4991ZM16.7619 16.5092C15.6303 16.5092 14.5447 16.2786 13.5335 15.8234C13.5259 15.8052 13.5158 15.7881 13.5079 15.77C13.4751 15.6956 13.4399 15.6221 13.4021 15.5497C13.3845 15.5162 13.3672 15.4827 13.3486 15.4496C13.3023 15.3675 13.2528 15.2868 13.1998 15.2078C13.1921 15.1964 13.186 15.184 13.1782 15.1726C13.0976 15.0563 13.0098 14.9468 12.9176 14.8419C12.8931 14.814 12.8662 14.7889 12.841 14.7619C12.7717 14.6878 12.7009 14.6156 12.6261 14.5479C12.5923 14.5173 12.5568 14.489 12.5219 14.4598C12.4506 14.4001 12.3781 14.3426 12.3027 14.2887C12.2645 14.2614 12.2258 14.2355 12.1866 14.2098C12.1097 14.1592 12.031 14.1118 11.9505 14.0673C11.9102 14.045 11.8702 14.0229 11.8291 14.0022C11.7449 13.9597 11.6587 13.9218 11.5712 13.886C11.531 13.8695 11.4916 13.8519 11.4509 13.8369C11.3542 13.8014 11.2554 13.7717 11.1555 13.7444C11.1223 13.7353 11.0899 13.7238 11.0563 13.7157C10.9227 13.6833 10.787 13.6569 10.6489 13.6397C10.3615 13.2988 10.1017 12.9286 9.87388 12.5364C10.1199 12.269 10.3274 11.9703 10.4914 11.6475C10.5044 11.622 10.5163 11.5961 10.5288 11.5703C10.5639 11.4973 10.5968 11.4233 10.6274 11.3481C10.6419 11.3128 10.6566 11.2777 10.6701 11.242C10.7008 11.16 10.7286 11.0767 10.7539 10.9924C10.7684 10.9446 10.7812 10.8963 10.7939 10.8479C10.8129 10.7748 10.8308 10.7015 10.8458 10.6271C10.8556 10.5787 10.8635 10.5299 10.8714 10.481C10.8817 10.4185 10.8903 10.3557 10.8976 10.2924C10.9032 10.2438 10.9091 10.1954 10.9129 10.1464C10.9193 10.0653 10.9225 9.98364 10.9241 9.90159C10.9246 9.87462 10.9278 9.84816 10.9278 9.82109V9.12982H11.3623C12.2534 9.12982 12.9781 8.40495 12.9781 7.51403V7.4802C12.9781 7.4744 12.9789 7.4688 12.9789 7.46299C12.9789 7.45984 12.9781 7.45694 12.9781 7.45381V7.41515C12.9781 6.5632 12.3149 5.86483 11.4777 5.80521V4.41216C11.4777 4.41085 11.4774 4.40959 11.4774 4.40828V4.36926C11.4774 3.8646 11.3241 3.39524 11.0621 3.00457C12.5545 1.47058 14.6169 0.595597 16.7619 0.595597C21.1486 0.595597 24.7173 4.16569 24.7173 8.55385C24.7173 12.9406 21.1486 16.5092 16.7619 16.5092Z" fill="white"/>
<path d="M20.3195 9.56648C20.1488 9.1163 19.6442 8.88858 19.1937 9.05842L18.7104 9.24106C17.9173 9.54089 17.0248 9.13927 16.7244 8.34417C16.5787 7.95913 16.5918 7.54049 16.7613 7.16534C16.9306 6.79018 17.236 6.50358 17.621 6.35803L18.1043 6.17539C18.3225 6.09309 18.4958 5.93052 18.5917 5.71793C18.6877 5.50535 18.695 5.26804 18.6127 5.04978L17.5178 2.1525C17.4355 1.93438 17.2729 1.76135 17.0603 1.66538C16.848 1.56984 16.6107 1.56185 16.3923 1.64429L15.2314 2.08294C15.2313 2.08297 15.2312 2.08296 15.231 2.08299C15.2309 2.08303 15.2308 2.08314 15.2307 2.08317L14.9007 2.2079C13.4251 2.76554 12.678 4.41987 13.2355 5.89562L15.7266 12.488C15.9968 13.2029 16.529 13.77 17.2255 14.0844C17.6015 14.2542 18.0011 14.3394 18.4018 14.3394C18.7433 14.3394 19.0853 14.2775 19.4142 14.1533L20.9058 13.5897C21.3563 13.4192 21.5843 12.9144 21.4141 12.4639L20.3195 9.56648ZM15.7202 2.535L16.6028 2.2015C16.6351 2.18929 16.668 2.18362 16.7006 2.18362C16.8128 2.18362 16.9187 2.2521 16.9605 2.36305L18.0555 5.26019C18.0817 5.32969 18.0793 5.40516 18.0488 5.47277C18.0183 5.54039 17.9633 5.59201 17.8938 5.61818L17.4104 5.80082C17.2748 5.85209 17.1465 5.91624 17.0264 5.99158L15.7202 2.535ZM20.6952 13.0325L19.8129 13.3658L18.5065 9.90876C18.6455 9.88629 18.7842 9.84985 18.921 9.79827L19.4043 9.61563C19.5477 9.56154 19.7082 9.63395 19.7623 9.77718L20.8569 12.6745C20.911 12.8175 20.8386 12.9784 20.6952 13.0325Z" fill="white"/>
</svg>
