<svg width="20" height="20" viewBox="0 0 20 20" fill="none" xmlns="http://www.w3.org/2000/svg">
<path d="M15.2752 5.78008C15.299 5.83536 15.3229 5.88824 15.3468 5.94352C15.3229 5.88584 15.299 5.82815 15.2752 5.77046C15.5476 6.42183 15.734 7.10685 15.832 7.80629C15.8224 7.74139 15.8153 7.6789 15.8057 7.614C15.9013 8.32786 15.9013 9.04893 15.8081 9.76279C15.8177 9.69789 15.8248 9.6354 15.8344 9.5705C15.7388 10.2699 15.5548 10.9526 15.2847 11.6063C15.3086 11.5486 15.3325 11.491 15.3564 11.4333C15.1867 11.8371 14.986 12.2264 14.7518 12.599C14.6323 12.7889 14.5056 12.9716 14.3718 13.1494C14.2977 13.2504 14.4745 13.0172 14.367 13.1542C14.3359 13.1927 14.3048 13.2311 14.2738 13.2696C14.1973 13.3633 14.1184 13.4547 14.0372 13.5436C13.7767 13.832 13.4971 14.1036 13.1983 14.3512C13.1672 14.3776 13.1362 14.4041 13.1051 14.4281C13.086 14.4425 13.0693 14.457 13.0501 14.4714C12.9641 14.5411 13.1123 14.4233 13.1123 14.4233C13.043 14.4834 12.9641 14.5339 12.89 14.5892C12.7466 14.6925 12.5984 14.7911 12.4479 14.8848C12.1085 15.0963 11.7524 15.279 11.3868 15.4352C11.4441 15.4112 11.5015 15.3871 11.5588 15.3631C10.9064 15.6395 10.2205 15.827 9.52024 15.9255C9.58477 15.9159 9.64691 15.9087 9.71144 15.8991C9.00402 15.9928 8.28705 15.9928 7.57963 15.8991C7.64416 15.9087 7.7063 15.9159 7.77083 15.9255C7.07058 15.8294 6.38468 15.6419 5.73223 15.3631C5.78959 15.3871 5.84695 15.4112 5.90431 15.4352C5.58406 15.2982 5.27337 15.142 4.97463 14.9641C4.81929 14.8704 4.66394 14.7718 4.51577 14.6685C4.44885 14.6228 4.38432 14.5771 4.31979 14.5291C4.28156 14.5026 4.24571 14.4738 4.20986 14.4449C4.17162 14.4161 4.11187 14.3608 4.272 14.493C4.25049 14.4738 4.22659 14.457 4.20508 14.4401C3.91112 14.2046 3.63389 13.945 3.37578 13.671C3.22521 13.51 3.08182 13.3441 2.9432 13.171C2.92648 13.1494 2.90736 13.1278 2.89063 13.1037C2.8978 13.1134 2.99578 13.2456 2.92648 13.1494C2.8978 13.111 2.86912 13.0701 2.83805 13.0316C2.77352 12.9403 2.70899 12.849 2.64686 12.7576C2.37202 12.3394 2.13541 11.8972 1.94183 11.4357C1.96573 11.4934 1.98963 11.551 2.01353 11.6087C1.74347 10.9574 1.55945 10.2747 1.46385 9.57291C1.47341 9.6378 1.48058 9.7003 1.49014 9.76519C1.39932 9.06335 1.39932 8.35189 1.48775 7.65005C1.47819 7.71495 1.47102 7.77744 1.46146 7.84234C1.55706 7.12848 1.74586 6.43385 2.02309 5.77046C1.99919 5.82815 1.97529 5.88584 1.95139 5.94352C2.11391 5.55895 2.3051 5.1888 2.52736 4.83307C2.63969 4.65281 2.75918 4.47735 2.88346 4.3091C2.91692 4.26343 3.03641 4.13364 2.89302 4.29467C2.92409 4.26102 2.95037 4.22016 2.98144 4.18411C3.05314 4.09518 3.12723 4.00865 3.20371 3.92212C3.4666 3.62408 3.75099 3.34286 4.0569 3.08808C4.12382 3.0328 4.19074 2.97752 4.26005 2.92224C4.32696 2.86936 4.1286 3.02319 4.19791 2.97031C4.21703 2.95589 4.23376 2.94147 4.25288 2.92945C4.29351 2.8982 4.33652 2.86696 4.37715 2.83811C4.52533 2.72995 4.67589 2.629 4.83123 2.53286C5.17538 2.31894 5.53387 2.13146 5.9067 1.97283C5.84934 1.99687 5.79198 2.0209 5.73462 2.04494C6.38707 1.76853 7.07297 1.58105 7.77322 1.4825C7.70869 1.49212 7.64655 1.49933 7.58202 1.50894C8.28944 1.4152 9.00641 1.4152 9.71383 1.50894C9.6493 1.49933 9.58716 1.49212 9.52263 1.4825C10.2229 1.57864 10.9088 1.76612 11.5612 2.04494C11.5039 2.0209 11.4465 1.99687 11.3892 1.97283C11.8456 2.16752 12.283 2.40547 12.694 2.68188C12.7992 2.75158 12.902 2.8261 13.0023 2.90061C13.0262 2.91743 13.0478 2.93426 13.0717 2.95348C13.1649 3.02559 13.0478 2.93906 13.0215 2.91503C13.0693 2.9631 13.1314 3.00156 13.184 3.04482C13.3823 3.21067 13.5735 3.38372 13.7552 3.56639C14.0204 3.83319 14.5056 3.85482 14.7685 3.56639C15.0314 3.27797 15.0529 2.8309 14.7685 2.54728C13.6811 1.45847 12.3117 0.660482 10.8227 0.275911C9.37446 -0.0990451 7.83057 -0.0918344 6.38468 0.297543C4.90532 0.694132 3.52873 1.50894 2.45566 2.61699C1.24159 3.86924 0.395558 5.50127 0.118329 7.23183C-0.0370157 8.20047 -0.0394055 9.15709 0.111159 10.1257C0.256944 11.0679 0.574802 11.9861 1.02172 12.8273C1.81517 14.3224 3.07465 15.589 4.56357 16.3846C5.88758 17.0937 7.39561 17.4566 8.89647 17.4109C10.4021 17.3653 11.8958 16.9278 13.1768 16.1322C14.6514 15.2165 15.8678 13.8489 16.5585 12.2457C16.96 11.3155 17.2038 10.3517 17.2851 9.33976C17.3615 8.38314 17.2659 7.40489 17.0246 6.47711C16.8955 5.98679 16.7187 5.51569 16.5107 5.0542C16.4414 4.90037 16.2383 4.76577 16.0829 4.72251C15.9109 4.67444 15.6838 4.69607 15.5309 4.79462C15.3779 4.89316 15.2441 5.04218 15.2011 5.22485C15.1557 5.42435 15.1915 5.5926 15.2752 5.78008Z" fill="white"/>
<path d="M19.1468 18.2402C18.6521 17.7426 18.1598 17.2475 17.6651 16.75C16.8812 15.9616 16.0973 15.1732 15.3134 14.3848C15.1341 14.2046 14.9525 14.0219 14.7733 13.8416C14.508 13.5748 14.0204 13.5556 13.7599 13.8416C13.4971 14.1301 13.4755 14.5771 13.7599 14.8608C14.2547 15.3583 14.747 15.8534 15.2417 16.351C16.0256 17.1393 16.8095 17.9277 17.5934 18.7161C17.7726 18.8964 17.9542 19.079 18.1335 19.2593C18.3988 19.5261 18.8863 19.5453 19.1468 19.2593C19.4097 18.9709 19.4312 18.5238 19.1468 18.2402Z" fill="white"/>
<path d="M1.92271 12.6927C2.49629 12.1135 3.07226 11.5342 3.64584 10.955C4.56117 10.032 5.4789 9.10902 6.39423 8.18364C6.60455 7.96973 6.81725 7.75821 7.02756 7.5443C6.80291 7.5443 6.57587 7.5443 6.35121 7.5443C6.75033 7.94569 7.15184 8.34949 7.55095 8.75089C8.18906 9.39264 8.82477 10.032 9.46288 10.6737C9.60866 10.8204 9.75445 10.967 9.89784 11.1112C10.0795 11.2939 10.3902 11.2963 10.5742 11.1112C10.8777 10.8059 11.1836 10.4983 11.4871 10.193C12.2184 9.45754 12.9474 8.72445 13.6787 7.98896C14.5629 7.09964 15.4448 6.21272 16.3291 5.3234C17.0915 4.55666 17.8562 3.78752 18.6186 3.02078C18.9867 2.65063 19.3667 2.28529 19.7275 1.90553C19.7323 1.90072 19.7371 1.89591 19.7443 1.8887C19.9211 1.71084 19.9355 1.38395 19.7443 1.20849C19.5531 1.03303 19.2567 1.01861 19.0679 1.20849C18.7644 1.51374 18.4585 1.8214 18.155 2.12665C17.4237 2.86215 16.6947 3.59523 15.9634 4.33073C15.0792 5.22005 14.1973 6.10696 13.313 6.99628C12.5506 7.76302 11.7859 8.53216 11.0235 9.2989C10.6554 9.66905 10.2707 10.0296 9.91457 10.4142C9.90979 10.419 9.90501 10.4238 9.89784 10.431C10.1225 10.431 10.3495 10.431 10.5742 10.431C10.1751 10.0296 9.77357 9.62579 9.37445 9.22439C8.73635 8.58264 8.10063 7.94329 7.46252 7.30154C7.31674 7.15492 7.17095 7.0083 7.02756 6.86409C6.84593 6.68142 6.53524 6.67901 6.35121 6.86409C5.77764 7.44335 5.20167 8.02261 4.62809 8.60187C3.71275 9.52484 2.79503 10.4478 1.87969 11.3732C1.66938 11.5871 1.45668 11.7986 1.24637 12.0125C1.06951 12.1904 1.05517 12.5173 1.24637 12.6927C1.43517 12.8682 1.73391 12.8826 1.92271 12.6927Z" fill="white"/>
<path d="M19.6415 4.32593V1.31425H16.6469L19.6415 4.32593Z" fill="white"/>
<path d="M20 4.32593C20 3.44622 20 2.56892 20 1.68921C20 1.56423 20 1.43924 20 1.31426C20 1.11957 19.8351 0.95372 19.6415 0.95372C18.7668 0.95372 17.8945 0.95372 17.0198 0.95372C16.8955 0.95372 16.7712 0.95372 16.647 0.95372C16.3363 0.95372 16.1738 1.3479 16.3936 1.56903C16.7282 1.90553 17.0652 2.24444 17.3998 2.58094C17.9375 3.12174 18.4776 3.66494 19.0154 4.20575C19.1396 4.33073 19.2615 4.45331 19.3858 4.5783C19.522 4.7153 19.7562 4.7153 19.8925 4.5783C20.0287 4.4413 20.0287 4.20575 19.8925 4.06874C19.5579 3.73224 19.2209 3.39334 18.8863 3.05684C18.3486 2.51604 17.8085 1.97283 17.2707 1.43203C17.1464 1.30704 17.0246 1.18446 16.9003 1.05948C16.8166 1.26378 16.7306 1.47049 16.647 1.67479C17.5217 1.67479 18.394 1.67479 19.2687 1.67479C19.393 1.67479 19.5172 1.67479 19.6415 1.67479C19.522 1.55461 19.4025 1.43443 19.283 1.31426C19.283 2.19396 19.283 3.07126 19.283 3.95097C19.283 4.07595 19.283 4.20094 19.283 4.32593C19.283 4.5134 19.4479 4.69607 19.6415 4.68646C19.8375 4.67685 20 4.52783 20 4.32593Z" fill="white"/>
</svg>
