<svg width="18" height="18" viewBox="0 0 18 18" fill="none" xmlns="http://www.w3.org/2000/svg">
<path d="M15.0396 2.95157C13.4098 1.32735 11.2366 0.425003 8.94268 0.425003C4.17378 0.425003 0.310365 4.275 0.310365 9.02735C0.310365 10.5313 0.732927 12.0352 1.45732 13.2984L0.25 17.75L4.83781 16.5469C6.10549 17.2086 7.4939 17.5695 8.94268 17.5695C13.7116 17.5695 17.575 13.7195 17.575 8.96719C17.5146 6.74141 16.6695 4.57578 15.0396 2.95157ZM13.1079 12.0953C12.9268 12.5766 12.0817 13.0578 11.6591 13.118C11.297 13.1781 10.814 13.1781 10.3311 13.0578C10.0293 12.9375 9.60671 12.8172 9.12378 12.5766C6.95061 11.6742 5.5622 9.5086 5.44146 9.32813C5.32073 9.20782 4.53598 8.18516 4.53598 7.10235C4.53598 6.01953 5.07927 5.53828 5.26037 5.29766C5.44146 5.05703 5.68293 5.05703 5.86402 5.05703C5.98476 5.05703 6.16585 5.05703 6.28658 5.05703C6.40731 5.05703 6.58841 4.99688 6.76951 5.41797C6.95061 5.83907 7.37317 6.92188 7.43354 6.98203C7.4939 7.10235 7.4939 7.22266 7.43354 7.34297C7.37317 7.46328 7.3128 7.5836 7.19207 7.70391C7.07134 7.82422 6.95061 8.00469 6.89024 8.06485C6.76951 8.18516 6.64878 8.30547 6.76951 8.48594C6.89024 8.72657 7.3128 9.38828 7.97683 9.98985C8.82195 10.7117 9.48598 10.9523 9.72744 11.0727C9.9689 11.193 10.0896 11.1328 10.2104 11.0125C10.3311 10.8922 10.7537 10.4109 10.8744 10.1703C10.9951 9.92969 11.1762 9.98985 11.3573 10.05C11.5384 10.1102 12.625 10.6516 12.8061 10.7719C13.0476 10.8922 13.1683 10.9523 13.2287 11.0125C13.289 11.193 13.289 11.6141 13.1079 12.0953Z" fill="white"/>
</svg>
